HIERARCHY
ROOT root
{
	OFFSET 0.00 0.00 0.00
	CHANNELS 6 Xposition Yposition Zposition Zrotation Xrotation Yrotation
	JOINT lowerback
	{
		OFFSET 0 0 0
		CHANNELS 6 Xposition Yposition Zposition Zrotation Xrotation Yrotation
		JOINT upperback
		{
			OFFSET -0.214371 12.3768 -1.12219
			CHANNELS 6 Xposition Yposition Zposition Zrotation Xrotation Yrotation
			JOINT thorax
			{
				OFFSET -0.00137213 12.3873 0.296195
				CHANNELS 6 Xposition Yposition Zposition Zrotation Xrotation Yrotation
				JOINT lowerneck
				{
					OFFSET 0.0883157 12.5016 0.82912
					CHANNELS 6 Xposition Yposition Zposition Zrotation Xrotation Yrotation
					JOINT upperneck
					{
						OFFSET -1 10.1794 0.943522
						CHANNELS 6 Xposition Yposition Zposition Zrotation Xrotation Yrotation
						JOINT head
						{
							OFFSET 0.667525 10.2797 -1.57149
							CHANNELS 6 Xposition Yposition Zposition Zrotation Xrotation Yrotation
							End Site
							{
								OFFSET 0 0 0
							}
						}
					}
				}
				JOINT lclavicle
				{
					OFFSET 0.0883157 12.5016 0.82912
					CHANNELS 6 Xposition Yposition Zposition Zrotation Xrotation Yrotation
					JOINT lhumerus
					{
						OFFSET 20.61 4.45006 1.43784
						CHANNELS 6 Xposition Yposition Zposition Zrotation Xrotation Yrotation
						JOINT lradius
						{
							OFFSET 0 -30.3438 0
							CHANNELS 6 Xposition Yposition Zposition Zrotation Xrotation Yrotation
							JOINT lwrist
							{
								OFFSET 0 -18.964 0
								CHANNELS 6 Xposition Yposition Zposition Zrotation Xrotation Yrotation
								JOINT lhand
								{
									OFFSET 0 -9.48199 0
									CHANNELS 6 Xposition Yposition Zposition Zrotation Xrotation Yrotation
									JOINT lfingers
									{
										OFFSET 0 -3.17138 0
										CHANNELS 6 Xposition Yposition Zposition Zrotation Xrotation Yrotation
										End Site
										{
											OFFSET 0 -2.55685 0
										}
									}
								}
								JOINT lthumb
								{
									OFFSET 0 -9.48199 0
									CHANNELS 6 Xposition Yposition Zposition Zrotation Xrotation Yrotation
									End Site
									{
										OFFSET 0 -3.67114 0
									}
								}
							}
						}
					}
				}
				JOINT rclavicle
				{
					OFFSET 0.0883157 12.5016 0.82912
					CHANNELS 6 Xposition Yposition Zposition Zrotation Xrotation Yrotation
					JOINT rhumerus
					{
						OFFSET -20.61 4.45 1.44
						CHANNELS 6 Xposition Yposition Zposition Zrotation Xrotation Yrotation
						JOINT rradius
						{
							OFFSET 0 -29.5102 0
							CHANNELS 6 Xposition Yposition Zposition Zrotation Xrotation Yrotation
							JOINT rwrist
							{
								OFFSET 0 -19.2342 0
								CHANNELS 6 Xposition Yposition Zposition Zrotation Xrotation Yrotation
								JOINT rhand
								{
									OFFSET 0 -9.61712 0
									CHANNELS 6 Xposition Yposition Zposition Zrotation Xrotation Yrotation
									JOINT rfingers
									{
										OFFSET 0 -3.29215 0
										CHANNELS 6 Xposition Yposition Zposition Zrotation Xrotation Yrotation
										End Site
										{
											OFFSET 0 -2.557 0
										}
									}
								}
								JOINT rthumb
								{
									OFFSET 0 -9.61712 0
									CHANNELS 6 Xposition Yposition Zposition Zrotation Xrotation Yrotation
									End Site
									{
										OFFSET 0 -3.671 0
									}
								}
							}
						}
					}
				}
			}
		}
	}
	JOINT rfemur
	{
		OFFSET -8.46272 -9.62775 4.76248
		CHANNELS 6 Xposition Yposition Zposition Zrotation Xrotation Yrotation
		JOINT rtibia
		{
			OFFSET 1.00552e-005 -38.0331 0
			CHANNELS 6 Xposition Yposition Zposition Zrotation Xrotation Yrotation
			JOINT rfoot
			{
				OFFSET 1.14428e-005 -43.2815 0
				CHANNELS 6 Xposition Yposition Zposition Zrotation Xrotation Yrotation
				JOINT rtoes
				{
					OFFSET 0 -14.1868 -3.08763
					CHANNELS 6 Xposition Yposition Zposition Zrotation Xrotation Yrotation
					End Site
					{
						OFFSET 0 -7.27332 0
					}
				}
			}
		}
	}
	JOINT lfemur
	{
		OFFSET 9.10607 -9.62778 4.76249
		CHANNELS 6 Xposition Yposition Zposition Zrotation Xrotation Yrotation
		JOINT ltibia
		{
			OFFSET -1.01399e-005 -38.3535 0
			CHANNELS 6 Xposition Yposition Zposition Zrotation Xrotation Yrotation
			JOINT lfoot
			{
				OFFSET -1.12937e-005 -42.7176 0
				CHANNELS 6 Xposition Yposition Zposition Zrotation Xrotation Yrotation
				JOINT ltoes
				{
					OFFSET 0 -13.9965 -2.83857
					CHANNELS 6 Xposition Yposition Zposition Zrotation Xrotation Yrotation
					End Site
					{
						OFFSET 0 -7.16348 0
					}
				}
			}
		}
	}
}
MOTION
Frames: 4
Frame Time: 0.00833333
-5.1115	96.8779	68.0297	-2.50092	-4.83921	-2.80214	0 0 0 2.78911	6.53981	-0.2606	-0.214371 12.3768 -1.12219 1.61707	3.03024	-0.167574	-0.00137213 12.3873 0.296195 0.118347	-0.54629	-0.0701523	0.0883157 12.5016 0.82912 -0.996956	-6.76553	2.42239	-1 10.1794 0.943522 -2.00766	12.9095	3.49077	0.667525 10.2797 -1.57149 -0.0375279	1.6372	1.66572	0.0883157 12.5016 0.82912 -15	0	-0	20.61 4.45006 1.43784 14.6787	4.84342	179.175	0 -30.3438 0 -0	17.5111	-0	0 -18.964 0 1.36027e-014	-2.42044e-015	-110.179	0 -9.48199 0 1.22245	4.37968	-2.58917e-014	0 -3.17138 0 -0	7.12502	-0	0 -9.48199 0 25	15	-1.36605e-015	0.0883157 12.5016 0.82912 15	0	-0	-20.61 4.45 1.44 -19.1416	-2.55734	-156.416	0 -29.5102 0 -0	23.8267	-0	0 -19.2342 0 5.03706e-016	-2.61056e-015	111.842	0 -9.61712 0 1.22	4.38	-0	0 -3.29215 0 -0	7.12502	-0	0 -9.61712 0 25	15	-7.97034e-015	-8.46272 -9.62775 4.76248 9.23291	-7.13908	5.37256	1.00552e-005 -38.0331 0 -0	31.0723	-0	1.14428e-005 -43.2815 0 -3.20137e-015	-76.5972	-3.29102e-015	0 -14.1868 -3.08763 -0	-29.8223	-0	9.10607 -9.62778 4.76249 1.04053	-18.4447	3.16227	-1.01399e-005 -38.3535 0 -0	71.7917	-0	-1.12937e-005 -42.7176 0 3.16924e-015	-60.9124	3.93003e-015	0 -13.9965 -2.83857 -0	-33.2167	-0
-5.10691	96.8446	68.8733	-2.50925	-4.84246	-3.2163	0 0 0 2.8827	6.60537	-0.143283	-0.214371 12.3768 -1.12219 1.50616	3.04818	-0.00471271	-0.00137213 12.3873 0.296195 -0.0577347	-0.560041	0.0123199	0.0883157 12.5016 0.82912 -0.939905	-6.64052	2.47285	-1 10.1794 0.943522 -2.03149	12.9805	3.55175	0.667525 10.2797 -1.57149 -0.0481578	1.63955	1.69424	0.0883157 12.5016 0.82912 -15	0	-0	20.61 4.45006 1.43784 15.0409	5.57973	179.732	0 -30.3438 0 -0	17.4914	-0	0 -18.964 0 1.36068e-014	-2.4094e-015	-110.083	0 -9.48199 0 1.22245	4.37968	-2.58917e-014	0 -3.17138 0 -0	7.12502	-0	0 -9.48199 0 25	15	-1.36605e-015	0.0883157 12.5016 0.82912 15	0	-0	-20.61 4.45 1.44 -19.1192	-3.22628	-155.618	0 -29.5102 0 -0	24.8872	-0	0 -19.2342 0 4.67584e-016	-2.51857e-015	111.035	0 -9.61712 0 1.22	4.38	-0	0 -3.29215 0 -0	7.12502	-0	0 -9.61712 0 25	15	-7.97034e-015	-8.46272 -9.62775 4.76248 9.17435	-6.54678	5.3293	1.00552e-005 -38.0331 0 -0	31.0146	-0	1.14428e-005 -43.2815 0 -3.3022e-015	-76.9923	-3.38918e-015	0 -14.1868 -3.08763 -0	-29.931	-0	9.10607 -9.62778 4.76249 1.00496	-19.5983	2.95391	-1.01399e-005 -38.3535 0 -0	71.0337	-0	-1.12937e-005 -42.7176 0 3.27125e-015	-61.6193	4.01948e-015	0 -13.9965 -2.83857 -0	-34.3151	-0
-5.10736	96.8099	69.7147	-2.52893	-4.83894	-3.6096	0 0 0 2.99288	6.67696	-0.0344776	-0.214371 12.3768 -1.12219 1.40415	3.06019	0.148491	-0.00137213 12.3873 0.296195 -0.233752	-0.58217	0.0898759	0.0883157 12.5016 0.82912 -0.886848	-6.51566	2.52721	-1 10.1794 0.943522 -2.05869	13.0527	3.61885	0.667525 10.2797 -1.57149 -0.0584731	1.64169	1.72561	0.0883157 12.5016 0.82912 -15	0	-0	20.61 4.45006 1.43784 15.3922	6.34367	-179.762	0 -30.3438 0 -0	17.5605	-0	0 -18.964 0 1.36154e-014	-2.38581e-015	-109.878	0 -9.48199 0 1.22245	4.37968	-2.58917e-014	0 -3.17138 0 -0	7.12502	-0	0 -9.48199 0 25	15	-1.36605e-015	0.0883157 12.5016 0.82912 15	0	-0	-20.61 4.45 1.44 -19.1393	-3.8782	-154.826	0 -29.5102 0 -0	26.0009	-0	0 -19.2342 0 4.34669e-016	-2.43125e-015	110.273	0 -9.61712 0 1.22	4.38	-0	0 -3.29215 0 -0	7.12502	-0	0 -9.61712 0 25	15	-7.97034e-015	-8.46272 -9.62775 4.76248 9.11616	-5.95074	5.26637	1.00552e-005 -38.0331 0 -0	30.9367	-0	1.14428e-005 -43.2815 0 -3.40298e-015	-77.365	-3.48746e-015	0 -14.1868 -3.08763 -0	-30.0679	-0	9.10607 -9.62778 4.76249 0.964054	-20.6988	2.695	-1.01399e-005 -38.3535 0 -0	70.0852	-0	-1.12937e-005 -42.7176 0 3.36855e-015	-62.2648	4.10535e-015	0 -13.9965 -2.83857 -0	-35.4755	-0
-5.10869	96.7684	70.5541	-2.56092	-4.83196	-3.98276	0 0 0 3.11803	6.7566	0.0665352	-0.214371 12.3768 -1.12219 1.31216	3.06753	0.292953	-0.00137213 12.3873 0.296195 -0.407644	-0.612638	0.162966	0.0883157 12.5016 0.82912 -0.841104	-6.3881	2.58307	-1 10.1794 0.943522 -2.08709	13.1234	3.68915	0.667525 10.2797 -1.57149 -0.0677072	1.64382	1.75855	0.0883157 12.5016 0.82912 -15	0	-0	20.61 4.45006 1.43784 15.7257	7.12367	-179.305	0 -30.3438 0 -0	17.6998	-0	0 -18.964 0 1.36275e-014	-2.35192e-015	-109.584	0 -9.48199 0 1.22245	4.37968	-2.58917e-014	0 -3.17138 0 -0	7.12502	-0	0 -9.48199 0 25	15	-1.36605e-015	0.0883157 12.5016 0.82912 15	0	-0	-20.61 4.45 1.44 -19.1954	-4.51777	-154.045	0 -29.5102 0 -0	27.1568	-0	0 -19.2342 0 4.0513e-016	-2.34973e-015	109.565	0 -9.61712 0 1.22	4.38	-0	0 -3.29215 0 -0	7.12502	-0	0 -9.61712 0 25	15	-7.97034e-015	-8.46272 -9.62775 4.76248 9.06078	-5.3357	5.19192	1.00552e-005 -38.0331 0 -0	30.8166	-0	1.14428e-005 -43.2815 0 -3.4999e-015	-77.7041	-3.58209e-015	0 -14.1868 -3.08763 -0	-30.2112	-0	9.10607 -9.62778 4.76249 0.922702	-21.7335	2.39568	-1.01399e-005 -38.3535 0 -0	68.9398	-0	-1.12937e-005 -42.7176 0 3.46338e-015	-62.8684	4.18952e-015	0 -13.9965 -2.83857 -0	-36.6208	-0
